<?xml version="1.0" encoding="UTF-8"?>
<!-- Generator: Adobe Illustrator 28.0.0, SVG Export Plug-In . SVG Version: 6.00 Build 0)  -->
<svg version="1.1" id="Layer_1" xmlns="http://www.w3.org/2000/svg" xmlns:xlink="http://www.w3.org/1999/xlink" x="0px" y="0px" viewBox="0 0 600 239" style="enable-background:new 0 0 600 239;" xml:space="preserve">
<style type="text/css">
	.st0{fill:#006D64;}
	.st1{fill:#D93532;}
</style>
<g>
	<path class="st0" d="M45.02,236.37L1.96,127.44H33.5l27.08,68.51l27.08-68.51h31.52L76.14,236.37H45.02z"/>
	<path class="st0" d="M164.46,236.37h-30.32V127.64h15.16h15.16V236.37z"/>
	<path class="st0" d="M249.74,236.37h-31.32l-36.98-108.73h31.32l21.22,65.68l21.22-65.68h29.31l21.22,65.68l21.22-65.68h31.53   l-36.99,108.73h-31.53l-20.01-59.21L249.74,236.37z"/>
	<path class="st0" d="M459.93,220.6c-12.26,11.59-26.65,17.38-43.15,17.38c-16.51,0-30.15-5.09-40.93-15.26   c-10.78-10.17-16.16-23.81-16.16-40.93c0-17.12,5.48-30.72,16.46-40.83c10.99-10.11,23.95-15.16,38.91-15.16   c14.95,0,27.65,4.52,38.09,13.54c10.43,9.03,15.66,21.43,15.66,37.19v16.17H389.6c0.94,5.93,4.04,10.78,9.3,14.55   c5.25,3.78,11.18,5.66,17.78,5.66c10.64,0,19.4-3.56,26.27-10.72L459.93,220.6z M430.83,156.13c-4.18-3.5-9.27-5.25-15.26-5.25   c-6,0-11.49,1.82-16.48,5.46c-4.98,3.64-7.88,8.56-8.69,14.75h47.7C437.43,164.62,435,159.64,430.83,156.13z"/>
	<path class="st0" d="M548.45,125.82c13.21,0,24.72,5.16,34.56,15.47c9.84,10.31,14.75,23.54,14.75,39.7   c0,16.18-5.05,29.72-15.16,40.63c-10.11,10.91-21.59,16.37-34.46,16.37c-12.87,0-23.54-5.33-32.03-15.96v14.34h-30.32V86.41h30.32   v53.36C524.46,130.47,535.24,125.82,548.45,125.82z M515.71,182.1c0,8.82,2.46,16.04,7.37,21.63c4.92,5.59,10.88,8.38,17.89,8.38   c7.01,0,13.14-2.79,18.4-8.38c5.25-5.59,7.88-12.77,7.88-21.53c0-8.75-2.56-16.1-7.68-22.02c-5.12-5.93-11.25-8.9-18.39-8.9   c-7.14,0-13.17,2.93-18.09,8.79C518.16,165.93,515.71,173.28,515.71,182.1z"/>
	<path class="st1" d="M266.12,23.68c-11.4-5.41-22.85-9.9-34.36-13.44c-23.13-7.19-47.87-10.78-72.88-10.78   c-25.01,0-49.75,3.6-72.88,10.78c-11.51,3.55-22.97,8.03-34.36,13.44c-11.4,5.41-28,15.22-49.8,29.42v15.29   c21.69-11.83,40.09-20.25,55.2-25.25c15.1-5.01,31.71-8.74,49.8-11.2c18.1-2.45,35.45-3.68,52.05-3.68   c16.6,0,33.95,1.23,52.05,3.68c18.09,2.46,34.69,6.19,49.8,11.2c15.11,5,33.51,13.42,55.2,25.25V53.1   C294.12,38.91,277.53,29.1,266.12,23.68z"/>
	<path class="st1" d="M140.25,56.38c-0.11,0.06-0.23,0.12-0.34,0.19c-0.15,0.08-0.29,0.17-0.43,0.26c-1.41,0.83-2.74,1.84-3.97,3.07   c-3.78,3.78-5.67,8.47-5.67,14.05c0,5.58,1.89,10.26,5.67,14.04c3.79,3.78,8.38,5.67,13.78,5.67c5.57,0,10.31-1.89,14.18-5.67   c3.88-3.78,5.81-8.46,5.81-14.04c0-0.2-0.02-0.38-0.02-0.58c21.6-3.05,33.46,10.24,33.46,10.24h6.94   C199.35,55.41,160.29,44.85,140.25,56.38z"/>
</g>
</svg>