<?xml version="1.0" encoding="UTF-8" standalone="no"?>
<svg xmlns="http://www.w3.org/2000/svg" width="1529.8707" height="330.50146">
  <path d="M386.36391 243.62262V124.023h-.89632c-4.22213 3.9037-19.96669 4.23393-26.6419 4.23393h-11.54601v.97887c13.36223 8.18481 11.49883 20.28512 11.49883 35.38102l.0472 50.6066c0 25.3211-24.87286 43.0823-44.9221 43.0823-26.34707 0-37.33877-18.7637-37.33877-49.0027V124.023h-.88406c-4.26931 3.9037-20.08462 4.23393-26.73625 4.23393h-11.46345v.97887c13.36223 8.18481 11.51062 20.28512 11.51062 35.38102v50.4415c0 46.1605 20.02566 68.0967 55.85484 68.0967 21.20502 0 43.02332-7.5126 53.97964-25.5215v21.8301h39.04885v-1.0025c-13.29147-7.5243-11.51063-19.7072-11.51063-34.8385m60.6155-63.9382c3.65604-20.54458 18.8227-33.61197 39.1549-33.61197 21.90085 0 35.86465 10.77941 39.20226 33.61197H446.9799zm110.21187 19.0586c1.21475-42.22138-27.04289-74.0643-68.30904-74.0643-45.24044 0-75.8804 32.84538-75.8804 78.3572 0 45.8538 35.49895 80.763 87.09618 80.763 14.29393 0 28.83562-2.2643 41.93839-8.0668l15.15487-30.7933h-.89632c-13.99909 11.8644-31.58345 17.49-49.78118 17.49-34.296 0-60.12405-23.4458-60.76091-63.6858h111.43841zm24.06608-144.20608c7.30028 0 22.13672-.44816 26.59473-4.85899h.89632v207.14407c8.1966 2.2644 16.60549 3.8919 25.04976 3.8919 33.1874 0 52.187-23.1746 52.187-55.5246 0-31.72498-14.76568-56.18506-45.26411-56.18506-9.63544 0-17.17159 2.6182-25.29743 7.18235l16.26347-27.89204c6.92289-2.65358 14.15241-3.62066 21.41731-3.62066 34.39035 0 63.66225 29.838 63.66225 74.63041 0 51.3142-34.70878 84.4427-89.60833 84.4427-20.5092 0-40.20463-3.6207-55.05286-5.8969v-.9907c10.02462-4.6231 9.09292-15.4733 9.09292-26.2409V100.02514c0-15.1077 1.83981-36.26555-11.20399-44.50932v-.97888h11.26296zm189.4004 125.14748c3.6325-20.54458 18.8227-33.61197 39.1668-33.61197 21.8537 0 35.7938 10.77941 39.1314 33.61197h-78.2982zm110.1647 19.0586c1.2266-42.22138-26.9839-74.0643-68.2971-74.0643-45.2052 0-75.8687 32.84538-75.8687 78.3572 0 45.8538 35.4871 80.763 87.1198 80.763 14.2704 0 28.8356-2.2643 41.8912-8.0668l15.1548-30.7933h-.9076c-13.9401 11.8644-31.5717 17.49-49.7693 17.49-34.3196 0-60.1241-23.4458-60.7138-63.6858h111.3912zm135.7865-36.54164h-.8963c-8.7981-10.86197-23.375-16.13374-37.0439-16.13374-29.4724 0-50.6656 22.37259-50.6656 53.56688 0 37.7869 29.4252 62.7895 63.1079 62.7895 15.5087 0 32.4798-6.5691 44.356-16.1338h.8841l-15.7918 31.0528c-12.7489 5.1774-26.7244 6.4629-40.0984 6.4629-46.7384 0-83.2634-32.8925-83.2634-75.5974 0-56.5153 40.7943-83.53461 86.6128-83.53461 10.9327 0 22.1603 1.29731 32.7982 3.89192v33.63555zM519.32455 97.5579V64.71252c-19.91951 8.90422-38.37661 25.56868-50.701 41.80857v12.80793c29.54315-19.91951 50.701-20.86301 50.701-21.77112"/>
  <path d="M112.53474 261.21632c-45.84201 0-77.7321-51.6916-77.7321-95.65846v-4.91796c.57742-42.57516 28.1397-82.49674 76.21071-82.49674 50.63015 0 76.69416 47.87051 77.13053 93.1936v4.74106c0 48.3305-30.05028 85.1385-75.60914 85.1385m157.12701 50.2764c-33.85964 5.5549-66.3748-5.1184-100.96564-44.6744 33.41148-16.7588 54.08579-58.5202 54.08579-97.30958v-4.83541c-.64913-66.37479-50.48872-110.18828-109.91694-110.18828C53.29512 54.48505.65996 100.11477.2 167.00848v4.49339c0 65.08925 48.30689 113.37255 107.47574 113.37255 8.49145 0 16.69984-1.2973 24.90824-3.2786 38.76571 36.3363 73.34476 51.786 103.18275 48.2007 14.18779-1.6747 29.14217-7.3474 38.14074-19.0232l-4.24572.719z"/>
  <path fill="#1a64b7" d="M1108.09415 112.94751h183.9577V.2h-183.9577v112.74751zm136.842-47.88231c-2.229 7.00544-6.1327 9.35238-7.2413 9.35238 0 0 1.8044-7.68947-3.7504-11.64035-5.2364-3.69142-11.7111-1.45062-14.7067 2.94842-2.8187 4.22213-3.2669 9.95386-3.2669 9.95386h9.5883v7.08799h-19.2709s.4831 10.00104 11.0389 9.02216c0 0-1.2737 7.90176-11.0389 3.76218 0 0 .4831 8.30275-6.2153 12.41874-6.6988-4.11599-6.1798-12.41874-6.1798-12.41874-9.7652 4.13958-11.0861-3.76218-11.0861-3.76218 10.5671.97888 11.0861-9.02216 11.0861-9.02216h-19.2709v-7.08799h9.5765s-.4369-5.73173-3.2787-9.95386c-3.0074-4.39904-9.4703-6.63984-14.6831-2.94842-5.5666 3.95088-3.7504 11.64035-3.7504 11.64035-1.0732 0-5.0123-2.34694-7.2413-9.35238-4.175-13.31506 8.975-26.13478 22.3136-18.72835 9.3878 5.18921 13.2679 16.92392 13.2679 29.34266h5.1185c-.1652.94349 1.1793-9.28163-.8256-16.91213-1.4506-5.23639-3.3022-10.76763-6.4983-17.43105-2.8069-5.79069-3.8212-15.54406 2.0757-22.87973 5.0359-6.34499 8.0197-9.8713 9.3759-12.38335 1.3563 2.51205 4.3637 6.03836 9.4468 12.38335 5.8614 7.33567 4.8236 17.08904 2.0167 22.87973-3.1725 6.66342-5.0241 12.19466-6.4511 17.43105-2.0286 7.6305-.6841 17.85562-.8379 16.91213h5.0831c0-12.41874 3.9037-24.15345 13.2561-29.34266 13.3386-7.40643 26.5004 5.41329 22.349 18.72835m100.6948 47.88231h184.0403V.2h-184.0403v112.74751zm136.8302-47.88231c-2.2172 7.00544-6.1327 9.35238-7.2295 9.35238 0 0 1.7808-7.68947-3.7268-11.64035-5.2718-3.69142-11.7229-1.45062-14.7539 2.94842-2.7833 4.22213-3.2433 9.95386-3.2433 9.95386h9.6119v7.08799h-19.3063s.484 10.00104 11.0979 9.02216c0 0-1.2973 7.90176-11.0979 3.76218 0 0 .484 8.30275-6.1916 12.41874-6.7106-4.11599-6.2035-12.41874-6.2035-12.41874-9.7652 4.13958-11.0625-3.76218-11.0625-3.76218 10.5554.97888 11.0625-9.02216 11.0625-9.02216h-19.2237v-7.08799h9.5765s-.4482-5.73173-3.3259-9.95386c-2.9955-4.39904-9.4703-6.63984-14.6477-2.94842-5.602 3.95088-3.7504 11.64035-3.7504 11.64035-1.1086 0-5.0477-2.34694-7.2295-9.35238-4.2221-13.31506 8.9396-26.13478 22.29-18.72835 9.3996 5.18921 13.2443 16.92392 13.2443 29.34266h5.1303c-.1293.94349 1.1675-9.28163-.8378-16.91213-1.4507-5.23639-3.2905-10.76763-6.4984-17.43105-2.8069-5.79069-3.8211-15.54406 2.0757-22.87973 5.0477-6.34499 8.0433-9.8713 9.3996-12.38335 1.3091 2.51205 4.4108 6.03836 9.4231 12.38335 5.8261 7.33567 4.8236 17.08904 2.0285 22.87973-3.1371 6.66342-5.0359 12.19466-6.4629 17.43105-2.0285 7.6305-.6718 17.85562-.802 16.91213h5.0831c0-12.41874 3.8683-24.15345 13.1971-29.34266 13.3505-7.40643 26.5122 5.41329 22.3726 18.72835m-374.366 214.27922h183.9577V166.6559h-183.9577v112.68852zm136.842-47.8587c-2.229 6.9936-6.1327 9.3288-7.2413 9.3288 0 0 1.8044-7.6541-3.7504-11.5814-5.2364-3.6678-11.7111-1.4388-14.7067 2.9012-2.8187 4.234-3.2669 9.9657-3.2669 9.9657h9.5883v7.088h-19.2709s.4831 10.001 11.0389 9.0575c0 0-1.2737 7.8664-11.0389 3.7268 0 0 .4831 8.2674-6.2153 12.4188-6.6988-4.1514-6.1798-12.4188-6.1798-12.4188-9.7652 4.1396-11.0861-3.7268-11.0861-3.7268 10.5671.9435 11.0861-9.0575 11.0861-9.0575h-19.2709v-7.088h9.5765s-.4369-5.7317-3.2787-9.9657c-3.0074-4.34-9.4703-6.569-14.6831-2.9012-5.5666 3.9273-3.7504 11.5814-3.7504 11.5814-1.0732 0-5.0123-2.3352-7.2413-9.3288-4.175-13.3033 8.975-26.1348 22.3136-18.7284 9.3878 5.2011 13.2679 16.924 13.2679 29.3427h5.1185c-.1652.9435 1.1793-9.2816-.8256-16.8649-1.4506-5.2718-3.3022-10.8031-6.4983-17.4665-2.8069-5.7907-3.8212-15.55583 2.0757-22.84432 5.0359-6.35679 8.0197-9.91848 9.3759-12.37157 1.3563 2.45309 4.3637 6.01478 9.4468 12.37157 5.8614 7.28849 4.8236 17.05362 2.0167 22.84432-3.1725 6.6634-5.0241 12.1947-6.4511 17.4665-2.0286 7.5833-.6841 17.8084-.8379 16.8649h5.0831c0-12.4187 3.9037-24.1416 13.2561-29.3427 13.3386-7.4064 26.5004 5.4251 22.349 18.7284m100.6948 47.8587h184.0403V166.6559h-184.0403v112.68852zm136.8302-47.8587c-2.2172 6.9936-6.1327 9.3288-7.2295 9.3288 0 0 1.7808-7.6541-3.7268-11.5814-5.2718-3.6678-11.7229-1.4388-14.7539 2.9012-2.7833 4.234-3.2433 9.9657-3.2433 9.9657h9.6119v7.088h-19.3063s.484 10.001 11.0979 9.0575c0 0-1.2973 7.8664-11.0979 3.7268 0 0 .484 8.2674-6.1916 12.4188-6.7106-4.1514-6.2035-12.4188-6.2035-12.4188-9.7652 4.1396-11.0625-3.7268-11.0625-3.7268 10.5554.9435 11.0625-9.0575 11.0625-9.0575h-19.2237v-7.088h9.5765s-.4482-5.7317-3.3259-9.9657c-2.9955-4.34-9.4703-6.569-14.6477-2.9012-5.602 3.9273-3.7504 11.5814-3.7504 11.5814-1.1086 0-5.0477-2.3352-7.2295-9.3288-4.2221-13.3033 8.9396-26.1348 22.29-18.7284 9.3996 5.2011 13.2443 16.924 13.2443 29.3427h5.1303c-.1293.9435 1.1675-9.2816-.8378-16.8649-1.4507-5.2718-3.2905-10.8031-6.4984-17.4665-2.8069-5.7907-3.8211-15.55583 2.0757-22.84432 5.0477-6.35679 8.0433-9.91848 9.3996-12.37157 1.3091 2.45309 4.4108 6.01478 9.4231 12.37157 5.8261 7.28849 4.8236 17.05362 2.0285 22.84432-3.1371 6.6634-5.0359 12.1947-6.4629 17.4665-2.0285 7.5833-.6718 17.8084-.802 16.8649h5.0831c0-12.4187 3.8683-24.1416 13.1971-29.3427 13.3505-7.4064 26.5122 5.4251 22.3726 18.7284"/>
</svg>